<svg xmlns="http://www.w3.org/2000/svg" xmlns:xlink="http://www.w3.org/1999/xlink" width="500" zoomAndPan="magnify" viewBox="0 0 375 374.999991" height="500" preserveAspectRatio="xMidYMid meet" version="1.0"><defs><g/><clipPath id="cbe3dd25d2"><path d="M 51.753906 72.871094 L 323.167969 72.871094 L 323.167969 299.808594 L 51.753906 299.808594 Z M 51.753906 72.871094 " clip-rule="nonzero"/></clipPath><clipPath id="67dbd97c29"><path d="M 81.003906 72.871094 L 293.996094 72.871094 C 301.753906 72.871094 309.195312 75.953125 314.679688 81.441406 C 320.164062 86.925781 323.246094 94.363281 323.246094 102.121094 L 323.246094 270.5625 C 323.246094 278.320312 320.164062 285.761719 314.679688 291.246094 C 309.195312 296.730469 301.753906 299.8125 293.996094 299.8125 L 81.003906 299.8125 C 73.246094 299.8125 65.804688 296.730469 60.320312 291.246094 C 54.835938 285.761719 51.753906 278.320312 51.753906 270.5625 L 51.753906 102.121094 C 51.753906 94.363281 54.835938 86.925781 60.320312 81.441406 C 65.804688 75.953125 73.246094 72.871094 81.003906 72.871094 " clip-rule="nonzero"/></clipPath><linearGradient x1="-0.00000051341" gradientTransform="matrix(0.694159, 0, 0, 0.694159, 51.753318, 72.872438)" y1="0" x2="390.999998" gradientUnits="userSpaceOnUse" y2="0" id="7120699ca1"><stop stop-opacity="1" stop-color="rgb(100%, 19.198608%, 19.198608%)" offset="0"/><stop stop-opacity="1" stop-color="rgb(100%, 19.345093%, 19.241333%)" offset="0.0078125"/><stop stop-opacity="1" stop-color="rgb(100%, 19.639587%, 19.328308%)" offset="0.015625"/><stop stop-opacity="1" stop-color="rgb(100%, 19.934082%, 19.413757%)" offset="0.0234375"/><stop stop-opacity="1" stop-color="rgb(100%, 20.228577%, 19.499207%)" offset="0.03125"/><stop stop-opacity="1" stop-color="rgb(100%, 20.523071%, 19.586182%)" offset="0.0390625"/><stop stop-opacity="1" stop-color="rgb(100%, 20.817566%, 19.671631%)" offset="0.046875"/><stop stop-opacity="1" stop-color="rgb(100%, 21.112061%, 19.75708%)" offset="0.0546875"/><stop stop-opacity="1" stop-color="rgb(100%, 21.406555%, 19.844055%)" offset="0.0625"/><stop stop-opacity="1" stop-color="rgb(100%, 21.70105%, 19.929504%)" offset="0.0703125"/><stop stop-opacity="1" stop-color="rgb(100%, 21.995544%, 20.014954%)" offset="0.078125"/><stop stop-opacity="1" stop-color="rgb(100%, 22.290039%, 20.100403%)" offset="0.0859375"/><stop stop-opacity="1" stop-color="rgb(100%, 22.584534%, 20.187378%)" offset="0.09375"/><stop stop-opacity="1" stop-color="rgb(100%, 22.879028%, 20.272827%)" offset="0.101562"/><stop stop-opacity="1" stop-color="rgb(100%, 23.173523%, 20.358276%)" offset="0.109375"/><stop stop-opacity="1" stop-color="rgb(100%, 23.468018%, 20.445251%)" offset="0.117187"/><stop stop-opacity="1" stop-color="rgb(100%, 23.762512%, 20.530701%)" offset="0.125"/><stop stop-opacity="1" stop-color="rgb(100%, 24.057007%, 20.61615%)" offset="0.132812"/><stop stop-opacity="1" stop-color="rgb(100%, 24.351501%, 20.703125%)" offset="0.140625"/><stop stop-opacity="1" stop-color="rgb(100%, 24.645996%, 20.788574%)" offset="0.148438"/><stop stop-opacity="1" stop-color="rgb(100%, 24.940491%, 20.874023%)" offset="0.15625"/><stop stop-opacity="1" stop-color="rgb(100%, 25.234985%, 20.959473%)" offset="0.164062"/><stop stop-opacity="1" stop-color="rgb(100%, 25.52948%, 21.046448%)" offset="0.171875"/><stop stop-opacity="1" stop-color="rgb(100%, 25.823975%, 21.131897%)" offset="0.179687"/><stop stop-opacity="1" stop-color="rgb(100%, 26.118469%, 21.217346%)" offset="0.1875"/><stop stop-opacity="1" stop-color="rgb(100%, 26.412964%, 21.304321%)" offset="0.195313"/><stop stop-opacity="1" stop-color="rgb(100%, 26.707458%, 21.389771%)" offset="0.203125"/><stop stop-opacity="1" stop-color="rgb(100%, 27.001953%, 21.47522%)" offset="0.210938"/><stop stop-opacity="1" stop-color="rgb(100%, 27.296448%, 21.562195%)" offset="0.21875"/><stop stop-opacity="1" stop-color="rgb(100%, 27.590942%, 21.647644%)" offset="0.226562"/><stop stop-opacity="1" stop-color="rgb(100%, 27.885437%, 21.733093%)" offset="0.234375"/><stop stop-opacity="1" stop-color="rgb(100%, 28.179932%, 21.820068%)" offset="0.242188"/><stop stop-opacity="1" stop-color="rgb(100%, 28.4729%, 21.905518%)" offset="0.25"/><stop stop-opacity="1" stop-color="rgb(100%, 28.767395%, 21.990967%)" offset="0.257812"/><stop stop-opacity="1" stop-color="rgb(100%, 29.06189%, 22.076416%)" offset="0.265625"/><stop stop-opacity="1" stop-color="rgb(100%, 29.356384%, 22.163391%)" offset="0.273438"/><stop stop-opacity="1" stop-color="rgb(100%, 29.650879%, 22.24884%)" offset="0.28125"/><stop stop-opacity="1" stop-color="rgb(100%, 29.945374%, 22.33429%)" offset="0.289062"/><stop stop-opacity="1" stop-color="rgb(100%, 30.239868%, 22.421265%)" offset="0.296875"/><stop stop-opacity="1" stop-color="rgb(100%, 30.534363%, 22.506714%)" offset="0.304688"/><stop stop-opacity="1" stop-color="rgb(100%, 30.828857%, 22.592163%)" offset="0.3125"/><stop stop-opacity="1" stop-color="rgb(100%, 31.123352%, 22.679138%)" offset="0.320312"/><stop stop-opacity="1" stop-color="rgb(100%, 31.417847%, 22.764587%)" offset="0.328125"/><stop stop-opacity="1" stop-color="rgb(100%, 31.712341%, 22.850037%)" offset="0.335938"/><stop stop-opacity="1" stop-color="rgb(100%, 32.006836%, 22.935486%)" offset="0.34375"/><stop stop-opacity="1" stop-color="rgb(100%, 32.301331%, 23.022461%)" offset="0.351562"/><stop stop-opacity="1" stop-color="rgb(100%, 32.595825%, 23.10791%)" offset="0.359375"/><stop stop-opacity="1" stop-color="rgb(100%, 32.89032%, 23.193359%)" offset="0.367187"/><stop stop-opacity="1" stop-color="rgb(100%, 33.184814%, 23.280334%)" offset="0.375"/><stop stop-opacity="1" stop-color="rgb(100%, 33.479309%, 23.365784%)" offset="0.382812"/><stop stop-opacity="1" stop-color="rgb(100%, 33.773804%, 23.451233%)" offset="0.390625"/><stop stop-opacity="1" stop-color="rgb(100%, 34.068298%, 23.538208%)" offset="0.398437"/><stop stop-opacity="1" stop-color="rgb(100%, 34.362793%, 23.623657%)" offset="0.40625"/><stop stop-opacity="1" stop-color="rgb(100%, 34.657288%, 23.709106%)" offset="0.414062"/><stop stop-opacity="1" stop-color="rgb(100%, 34.951782%, 23.796082%)" offset="0.421875"/><stop stop-opacity="1" stop-color="rgb(100%, 35.246277%, 23.881531%)" offset="0.429687"/><stop stop-opacity="1" stop-color="rgb(100%, 35.540771%, 23.96698%)" offset="0.4375"/><stop stop-opacity="1" stop-color="rgb(100%, 35.835266%, 24.052429%)" offset="0.445312"/><stop stop-opacity="1" stop-color="rgb(100%, 36.129761%, 24.139404%)" offset="0.453125"/><stop stop-opacity="1" stop-color="rgb(100%, 36.424255%, 24.224854%)" offset="0.460937"/><stop stop-opacity="1" stop-color="rgb(100%, 36.71875%, 24.310303%)" offset="0.46875"/><stop stop-opacity="1" stop-color="rgb(100%, 37.013245%, 24.397278%)" offset="0.476562"/><stop stop-opacity="1" stop-color="rgb(100%, 37.307739%, 24.482727%)" offset="0.484375"/><stop stop-opacity="1" stop-color="rgb(100%, 37.602234%, 24.568176%)" offset="0.492187"/><stop stop-opacity="1" stop-color="rgb(100%, 37.896729%, 24.655151%)" offset="0.5"/><stop stop-opacity="1" stop-color="rgb(100%, 38.189697%, 24.740601%)" offset="0.507812"/><stop stop-opacity="1" stop-color="rgb(100%, 38.484192%, 24.82605%)" offset="0.515625"/><stop stop-opacity="1" stop-color="rgb(100%, 38.778687%, 24.911499%)" offset="0.523438"/><stop stop-opacity="1" stop-color="rgb(100%, 39.073181%, 24.998474%)" offset="0.53125"/><stop stop-opacity="1" stop-color="rgb(100%, 39.367676%, 25.083923%)" offset="0.539063"/><stop stop-opacity="1" stop-color="rgb(100%, 39.66217%, 25.169373%)" offset="0.546875"/><stop stop-opacity="1" stop-color="rgb(100%, 39.956665%, 25.256348%)" offset="0.554688"/><stop stop-opacity="1" stop-color="rgb(100%, 40.25116%, 25.341797%)" offset="0.5625"/><stop stop-opacity="1" stop-color="rgb(100%, 40.545654%, 25.427246%)" offset="0.570313"/><stop stop-opacity="1" stop-color="rgb(100%, 40.840149%, 25.514221%)" offset="0.578125"/><stop stop-opacity="1" stop-color="rgb(100%, 41.134644%, 25.59967%)" offset="0.585938"/><stop stop-opacity="1" stop-color="rgb(100%, 41.429138%, 25.68512%)" offset="0.59375"/><stop stop-opacity="1" stop-color="rgb(100%, 41.723633%, 25.772095%)" offset="0.601562"/><stop stop-opacity="1" stop-color="rgb(100%, 42.018127%, 25.857544%)" offset="0.609375"/><stop stop-opacity="1" stop-color="rgb(100%, 42.312622%, 25.942993%)" offset="0.617187"/><stop stop-opacity="1" stop-color="rgb(100%, 42.607117%, 26.028442%)" offset="0.625"/><stop stop-opacity="1" stop-color="rgb(100%, 42.901611%, 26.115417%)" offset="0.632812"/><stop stop-opacity="1" stop-color="rgb(100%, 43.196106%, 26.200867%)" offset="0.640625"/><stop stop-opacity="1" stop-color="rgb(100%, 43.490601%, 26.286316%)" offset="0.648437"/><stop stop-opacity="1" stop-color="rgb(100%, 43.785095%, 26.373291%)" offset="0.65625"/><stop stop-opacity="1" stop-color="rgb(100%, 44.07959%, 26.45874%)" offset="0.664062"/><stop stop-opacity="1" stop-color="rgb(100%, 44.374084%, 26.544189%)" offset="0.671875"/><stop stop-opacity="1" stop-color="rgb(100%, 44.668579%, 26.631165%)" offset="0.679687"/><stop stop-opacity="1" stop-color="rgb(100%, 44.963074%, 26.716614%)" offset="0.6875"/><stop stop-opacity="1" stop-color="rgb(100%, 45.257568%, 26.802063%)" offset="0.695312"/><stop stop-opacity="1" stop-color="rgb(100%, 45.552063%, 26.887512%)" offset="0.703125"/><stop stop-opacity="1" stop-color="rgb(100%, 45.846558%, 26.974487%)" offset="0.710937"/><stop stop-opacity="1" stop-color="rgb(100%, 46.141052%, 27.059937%)" offset="0.71875"/><stop stop-opacity="1" stop-color="rgb(100%, 46.435547%, 27.145386%)" offset="0.726562"/><stop stop-opacity="1" stop-color="rgb(100%, 46.730042%, 27.232361%)" offset="0.734375"/><stop stop-opacity="1" stop-color="rgb(100%, 47.024536%, 27.31781%)" offset="0.742188"/><stop stop-opacity="1" stop-color="rgb(100%, 47.319031%, 27.403259%)" offset="0.75"/><stop stop-opacity="1" stop-color="rgb(100%, 47.613525%, 27.490234%)" offset="0.757812"/><stop stop-opacity="1" stop-color="rgb(100%, 47.90802%, 27.575684%)" offset="0.765625"/><stop stop-opacity="1" stop-color="rgb(100%, 48.200989%, 27.661133%)" offset="0.773438"/><stop stop-opacity="1" stop-color="rgb(100%, 48.495483%, 27.748108%)" offset="0.78125"/><stop stop-opacity="1" stop-color="rgb(100%, 48.789978%, 27.833557%)" offset="0.789063"/><stop stop-opacity="1" stop-color="rgb(100%, 49.084473%, 27.919006%)" offset="0.796875"/><stop stop-opacity="1" stop-color="rgb(100%, 49.378967%, 28.004456%)" offset="0.804688"/><stop stop-opacity="1" stop-color="rgb(100%, 49.673462%, 28.091431%)" offset="0.8125"/><stop stop-opacity="1" stop-color="rgb(100%, 49.967957%, 28.17688%)" offset="0.820313"/><stop stop-opacity="1" stop-color="rgb(100%, 50.262451%, 28.262329%)" offset="0.828125"/><stop stop-opacity="1" stop-color="rgb(100%, 50.556946%, 28.349304%)" offset="0.835938"/><stop stop-opacity="1" stop-color="rgb(100%, 50.85144%, 28.434753%)" offset="0.84375"/><stop stop-opacity="1" stop-color="rgb(100%, 51.145935%, 28.520203%)" offset="0.851563"/><stop stop-opacity="1" stop-color="rgb(100%, 51.44043%, 28.607178%)" offset="0.859375"/><stop stop-opacity="1" stop-color="rgb(100%, 51.734924%, 28.692627%)" offset="0.867188"/><stop stop-opacity="1" stop-color="rgb(100%, 52.029419%, 28.778076%)" offset="0.875"/><stop stop-opacity="1" stop-color="rgb(100%, 52.323914%, 28.863525%)" offset="0.882813"/><stop stop-opacity="1" stop-color="rgb(100%, 52.618408%, 28.9505%)" offset="0.890625"/><stop stop-opacity="1" stop-color="rgb(100%, 52.912903%, 29.03595%)" offset="0.898438"/><stop stop-opacity="1" stop-color="rgb(100%, 53.207397%, 29.121399%)" offset="0.90625"/><stop stop-opacity="1" stop-color="rgb(100%, 53.501892%, 29.208374%)" offset="0.914063"/><stop stop-opacity="1" stop-color="rgb(100%, 53.796387%, 29.293823%)" offset="0.921875"/><stop stop-opacity="1" stop-color="rgb(100%, 54.090881%, 29.379272%)" offset="0.929688"/><stop stop-opacity="1" stop-color="rgb(100%, 54.385376%, 29.466248%)" offset="0.9375"/><stop stop-opacity="1" stop-color="rgb(100%, 54.679871%, 29.551697%)" offset="0.945313"/><stop stop-opacity="1" stop-color="rgb(100%, 54.974365%, 29.637146%)" offset="0.953125"/><stop stop-opacity="1" stop-color="rgb(100%, 55.26886%, 29.724121%)" offset="0.960938"/><stop stop-opacity="1" stop-color="rgb(100%, 55.563354%, 29.80957%)" offset="0.96875"/><stop stop-opacity="1" stop-color="rgb(100%, 55.857849%, 29.89502%)" offset="0.976563"/><stop stop-opacity="1" stop-color="rgb(100%, 56.152344%, 29.980469%)" offset="0.984375"/><stop stop-opacity="1" stop-color="rgb(100%, 56.446838%, 30.067444%)" offset="0.992188"/><stop stop-opacity="1" stop-color="rgb(100%, 56.741333%, 30.152893%)" offset="1"/></linearGradient></defs><g clip-path="url(#cbe3dd25d2)"><g clip-path="url(#67dbd97c29)"><path fill="url(#7120699ca1)" d="M 51.753906 72.871094 L 51.753906 299.808594 L 323.167969 299.808594 L 323.167969 72.871094 Z M 51.753906 72.871094 " fill-rule="nonzero"/></g></g><g fill="#ffffff" fill-opacity="1"><g transform="translate(102.092592, 299.527392)"><g><path d="M 38.359375 1.28125 C 29.578125 1.28125 22.691406 -1.101562 17.703125 -5.875 C 12.722656 -10.65625 10.234375 -17.222656 10.234375 -25.578125 L 10.234375 -44.765625 C 10.234375 -53.117188 12.722656 -59.679688 17.703125 -64.453125 C 22.691406 -69.234375 29.578125 -71.625 38.359375 -71.625 C 47.148438 -71.625 54.035156 -69.234375 59.015625 -64.453125 C 64.003906 -59.679688 66.5 -53.117188 66.5 -44.765625 L 66.5 -31.84375 L 21.734375 -31.84375 L 21.734375 -26.21875 C 21.734375 -20.84375 23.203125 -16.617188 26.140625 -13.546875 C 29.085938 -10.484375 33.160156 -8.953125 38.359375 -8.953125 C 42.203125 -8.953125 45.53125 -9.546875 48.34375 -10.734375 C 51.15625 -11.929688 53.242188 -13.679688 54.609375 -15.984375 L 66.125 -15.984375 C 64.664062 -10.609375 61.441406 -6.382812 56.453125 -3.3125 C 51.472656 -0.25 45.441406 1.28125 38.359375 1.28125 Z M 55 -41.4375 L 55 -44.765625 C 55 -50.046875 53.546875 -54.132812 50.640625 -57.03125 C 47.742188 -59.9375 43.648438 -61.390625 38.359375 -61.390625 C 33.078125 -61.390625 28.984375 -59.9375 26.078125 -57.03125 C 23.179688 -54.132812 21.734375 -50.046875 21.734375 -44.765625 L 21.734375 -41.4375 Z M 55 -41.4375 "/></g></g></g><g fill="#ffffff" fill-opacity="1"><g transform="translate(178.824581, 299.527392)"><g><path d="M 36.453125 1.28125 C 29.035156 1.28125 22.914062 -0.398438 18.09375 -3.765625 C 13.28125 -7.140625 10.53125 -11.640625 9.84375 -17.265625 L 22 -17.265625 C 22.507812 -14.796875 24.082031 -12.789062 26.71875 -11.25 C 29.363281 -9.71875 32.609375 -8.953125 36.453125 -8.953125 L 40.03125 -8.953125 C 44.632812 -8.953125 48.210938 -9.910156 50.765625 -11.828125 C 53.328125 -13.742188 54.609375 -16.320312 54.609375 -19.5625 C 54.609375 -25.101562 50.6875 -28.472656 42.84375 -29.671875 L 32.234375 -31.203125 C 25.328125 -32.222656 20.164062 -34.394531 16.75 -37.71875 C 13.34375 -41.050781 11.640625 -45.703125 11.640625 -51.671875 C 11.640625 -57.972656 13.875 -62.875 18.34375 -66.375 C 22.820312 -69.875 29.070312 -71.625 37.09375 -71.625 L 40.671875 -71.625 C 44.078125 -71.625 47.226562 -71.195312 50.125 -70.34375 C 53.03125 -69.488281 55.585938 -68.269531 57.796875 -66.6875 C 60.015625 -65.113281 61.828125 -63.238281 63.234375 -61.0625 C 64.648438 -58.894531 65.566406 -56.488281 65.984375 -53.84375 L 53.84375 -53.84375 C 53.332031 -56.0625 51.878906 -57.875 49.484375 -59.28125 C 47.097656 -60.6875 44.160156 -61.390625 40.671875 -61.390625 L 37.09375 -61.390625 C 32.738281 -61.390625 29.347656 -60.535156 26.921875 -58.828125 C 24.492188 -57.117188 23.28125 -54.5625 23.28125 -51.15625 C 23.28125 -48.425781 24.109375 -46.359375 25.765625 -44.953125 C 27.429688 -43.546875 30.140625 -42.585938 33.890625 -42.078125 L 44.5 -40.546875 C 52.09375 -39.429688 57.613281 -37.210938 61.0625 -33.890625 C 64.519531 -30.566406 66.25 -25.832031 66.25 -19.6875 C 66.25 -13.125 63.96875 -7.988281 59.40625 -4.28125 C 54.84375 -0.570312 48.382812 1.28125 40.03125 1.28125 Z M 36.453125 1.28125 "/></g></g></g><g fill="#ffffff" fill-opacity="1"><g transform="translate(255.556571, 299.527392)"><g><path d="M 39.390625 1.28125 C 35.046875 1.28125 31.144531 0.640625 27.6875 -0.640625 C 24.238281 -1.921875 21.296875 -3.753906 18.859375 -6.140625 C 16.429688 -8.523438 14.554688 -11.421875 13.234375 -14.828125 C 11.910156 -18.242188 11.25 -22.039062 11.25 -26.21875 L 11.25 -44.125 C 11.25 -48.300781 11.910156 -52.09375 13.234375 -55.5 C 14.554688 -58.914062 16.429688 -61.816406 18.859375 -64.203125 C 21.296875 -66.585938 24.238281 -68.421875 27.6875 -69.703125 C 31.144531 -70.984375 35.046875 -71.625 39.390625 -71.625 C 47.148438 -71.625 53.519531 -69.507812 58.5 -65.28125 C 63.488281 -61.0625 66.5 -55.285156 67.53125 -47.953125 L 56.015625 -47.953125 C 55.421875 -52.046875 53.609375 -55.304688 50.578125 -57.734375 C 47.554688 -60.171875 43.828125 -61.390625 39.390625 -61.390625 C 34.273438 -61.390625 30.222656 -59.851562 27.234375 -56.78125 C 24.253906 -53.707031 22.765625 -49.488281 22.765625 -44.125 L 22.765625 -26.21875 C 22.765625 -20.84375 24.234375 -16.617188 27.171875 -13.546875 C 30.117188 -10.484375 34.191406 -8.953125 39.390625 -8.953125 C 43.828125 -8.953125 47.554688 -10.164062 50.578125 -12.59375 C 53.609375 -15.019531 55.421875 -18.28125 56.015625 -22.375 L 67.53125 -22.375 C 66.414062 -14.957031 63.363281 -9.160156 58.375 -4.984375 C 53.394531 -0.804688 47.066406 1.28125 39.390625 1.28125 Z M 39.390625 1.28125 "/></g></g></g></svg>